<svg width="34" height="34" viewBox="0 0 34 34" fill="none" xmlns="http://www.w3.org/2000/svg">
<rect width="34" height="34" rx="6" fill="#F0F0F0"></rect>
<g clip-path="url(#clip0_2525_2232)">
<path d="M23.951 10.7026C22.5549 10.0617 21.081 9.60696 19.567 9.3501C19.3598 9.72148 19.1723 10.1036 19.0054 10.4948C17.3927 10.2511 15.7527 10.2511 14.14 10.4948C13.9729 10.1036 13.7855 9.72153 13.5784 9.3501C12.0634 9.60913 10.5885 10.0649 9.191 10.706C6.4165 14.8223 5.66437 18.8363 6.04043 22.7933C7.66525 23.9972 9.48389 24.9127 11.4173 25.5001C11.8526 24.913 12.2379 24.2901 12.5689 23.6381C11.9401 23.4026 11.3333 23.1121 10.7554 22.7699C10.9075 22.6593 11.0563 22.5453 11.2 22.4347C12.8816 23.2277 14.7169 23.6388 16.5752 23.6388C18.4334 23.6388 20.2688 23.2277 21.9504 22.4347C22.0958 22.5537 22.2445 22.6676 22.3949 22.7699C21.8159 23.1126 21.208 23.4037 20.5781 23.6397C20.9088 24.2914 21.294 24.9138 21.7297 25.5001C23.6648 24.915 25.4848 23.9999 27.1099 22.795C27.5512 18.2061 26.3561 14.229 23.951 10.7026ZM13.0452 20.3598C11.9973 20.3598 11.1315 19.4061 11.1315 18.2329C11.1315 17.0597 11.9672 16.0977 13.0419 16.0977C14.1166 16.0977 14.9757 17.0597 14.9573 18.2329C14.9389 19.4061 14.1132 20.3598 13.0452 20.3598ZM20.1051 20.3598C19.0555 20.3598 18.1931 19.4061 18.1931 18.2329C18.1931 17.0597 19.0288 16.0977 20.1051 16.0977C21.1815 16.0977 22.0339 17.0597 22.0155 18.2329C21.9972 19.4061 21.1732 20.3598 20.1051 20.3598Z" fill="#090F1D"></path>
</g>
<defs>
<clipPath id="clip0_2525_2232">
<rect width="21.25" height="16.15" fill="white" transform="translate(5.9502 9.3501)"></rect>
</clipPath>
</defs>
</svg>