<svg width="34" height="35" viewBox="0 0 34 35" fill="none" xmlns="http://www.w3.org/2000/svg">
<rect y="0.585938" width="34" height="34" rx="6" fill="#F0F0F0"></rect>
<path fill-rule="evenodd" clip-rule="evenodd" d="M7.44364 16.7489C13.0808 14.2087 16.8397 12.534 18.7206 11.7249C24.0907 9.4147 25.2065 9.01339 25.9338 9.00014C26.0938 8.99723 26.4514 9.03823 26.6831 9.23267C26.8788 9.39685 26.9326 9.61863 26.9583 9.77429C26.9841 9.92995 27.0162 10.2846 26.9907 10.5616C26.6997 13.7241 25.4405 21.3986 24.7999 24.9406C24.5288 26.4394 23.9951 26.9419 23.4784 26.9911C22.3554 27.098 21.5027 26.2235 20.4151 25.4861C18.7132 24.3323 17.7517 23.614 16.0997 22.488C14.1906 21.1868 15.4282 20.4716 16.5162 19.3027C16.801 18.9969 21.7486 14.3423 21.8444 13.92C21.8564 13.8672 21.8675 13.6704 21.7544 13.5664C21.6414 13.4625 21.4745 13.498 21.3541 13.5263C21.1834 13.5664 18.4646 15.425 13.1976 19.1022C12.4259 19.6503 11.7269 19.9174 11.1006 19.9034C10.4102 19.888 9.08204 19.4996 8.09473 19.1677C6.88374 18.7606 5.92128 18.5453 6.00509 17.8539C6.04874 17.4937 6.52826 17.1254 7.44364 16.7489Z" fill="#090F1D"></path>
</svg>