<svg width="34" height="34" viewBox="0 0 34 34" fill="none" xmlns="http://www.w3.org/2000/svg">
<rect width="34" height="34" rx="6" fill="#F0F0F0"></rect>
<g clip-path="url(#clip0_2525_2221)">
<path d="M9.03946 9.03959C9.0329 9.05004 9.56405 9.82041 10.2165 10.7476C10.869 11.6749 12.2558 13.6479 13.2985 15.1293L15.1936 17.8239L15.0722 17.9703C15.0034 18.0505 13.6099 19.6505 11.9772 21.5258C10.3444 23.4047 9.00339 24.9524 9.00011 24.9699C8.99355 24.9873 9.2788 25.0012 9.68863 24.9978L10.387 24.9943L10.6165 24.7258C10.7444 24.5795 11.9313 23.2165 13.2558 21.6932C14.5804 20.1699 15.7017 18.8801 15.7477 18.8243L15.8296 18.7233L16.4853 19.6575C16.846 20.1699 17.8395 21.5851 18.6919 22.7982L20.246 25.0012H22.6231C24.6001 25.0012 24.9968 24.9943 24.9837 24.956C24.9739 24.9281 24.3706 24.0636 23.6427 23.0282C22.9149 21.9964 22.0821 20.8113 21.7935 20.3999C21.5017 19.9886 20.646 18.7651 19.8853 17.6879C19.1247 16.6074 18.5017 15.708 18.5017 15.694C18.5017 15.6697 22.5214 11.03 23.8887 9.4788L24.2788 9.0361H23.5607L22.846 9.03959L22.0099 10.0017C21.5509 10.5315 20.4263 11.8283 19.5083 12.8775L17.846 14.7877L15.8296 11.9224L13.8099 9.05353L11.4329 9.0361C10.1247 9.02564 9.04601 9.02913 9.03946 9.03959ZM14.6722 12.128C15.4493 13.2365 16.6493 14.9411 17.3378 15.9206C18.0263 16.8967 19.5542 19.0719 20.7345 20.7485C21.9149 22.4287 22.8919 23.8195 22.9083 23.844C22.928 23.8753 22.6952 23.8858 21.846 23.8858H20.7607L18.6099 20.8252C13.646 13.7734 11.1411 10.2108 11.1116 10.1585C11.0919 10.1272 11.3149 10.1167 12.1706 10.1167H13.2558L14.6722 12.128Z" fill="#090F1D"></path>
</g>
<defs>
<clipPath id="clip0_2525_2221">
<rect width="16" height="16" fill="white" transform="translate(9 9.00049)"></rect>
</clipPath>
</defs>
</svg>